<?xml version="1.0" encoding="UTF-8" standalone="no"?>
<!-- Created with Inkscape (http://www.inkscape.org/) -->

<svg
   xmlns:dc="http://purl.org/dc/elements/1.1/"
   xmlns:cc="http://creativecommons.org/ns#"
   xmlns:rdf="http://www.w3.org/1999/02/22-rdf-syntax-ns#"
   xmlns:svg="http://www.w3.org/2000/svg"
   xmlns="http://www.w3.org/2000/svg"
   xmlns:sodipodi="http://sodipodi.sourceforge.net/DTD/sodipodi-0.dtd"
   xmlns:inkscape="http://www.inkscape.org/namespaces/inkscape"
   version="1.1"
   width="24"
   height="24"
   id="svg4460"
   inkscape:version="0.48.2 r9819"
   sodipodi:docname="marker_bus.svg">
  <sodipodi:namedview
     pagecolor="#ffffff"
     bordercolor="#666666"
     borderopacity="1"
     objecttolerance="10"
     gridtolerance="10"
     guidetolerance="10"
     inkscape:pageopacity="0"
     inkscape:pageshadow="2"
     inkscape:window-width="1680"
     inkscape:window-height="994"
     id="namedview12"
     showgrid="false"
     inkscape:zoom="13.906433"
     inkscape:cx="-11.195036"
     inkscape:cy="16.423593"
     inkscape:window-x="-4"
     inkscape:window-y="-4"
     inkscape:window-maximized="1"
     inkscape:current-layer="svg4460" />
  <defs
     id="defs4462" />
  <metadata
     id="metadata4465">
    <rdf:RDF>
      <cc:Work
         rdf:about="">
        <dc:format>image/svg+xml</dc:format>
        <dc:type
           rdf:resource="http://purl.org/dc/dcmitype/StillImage" />
        <dc:title></dc:title>
      </cc:Work>
    </rdf:RDF>
  </metadata>
  <g
     transform="matrix(1.2732548,0,0,1.2732548,-3.8111857,-1312.5743)"
     id="layer1"
     style="fill:#c8beb7">
    <g
       transform="translate(72,-262)"
       id="marker-24"
       style="display:inline;fill:#c8beb7">
      <g
         transform="translate(0,33)"
         id="g15422"
         style="fill:#c8beb7">
        <path
           d="m -53,1266.8622 c 0,3.5 -5,9.5 -6.5,11.5 -1.5,-2 -6.5,-8 -6.5,-11.5 0,-3.5 3.27126,-6.5 6.5,-6.5 3.22874,0 6.5,3 6.5,6.5 z"
           inkscape:connector-curvature="0"
           id="path15235"
           style="opacity:0.29999999999999999;color:#000000;fill:#c8beb7;fill-opacity:1;fill-rule:nonzero;stroke:#ffffff;stroke-width:2;stroke-linecap:butt;stroke-linejoin:round;stroke-miterlimit:4;stroke-opacity:1;stroke-dasharray:none;stroke-dashoffset:0;marker:none;visibility:visible;display:inline;overflow:visible;enable-background:accumulate" />
        <g
           transform="translate(-173.99314,956.00001)"
           id="marker-15-7-6-8-1"
           style="display:inline;fill:#c8beb7">
          <path
             d="m 120.99314,310.86219 c 0,3.5 -5,9.5 -6.5,11.5 -1.5,-2 -6.5,-8 -6.5,-11.5 0,-3.5 3.27126,-6.5 6.5,-6.5 3.22874,0 6.5,3 6.5,6.5 z"
             inkscape:connector-curvature="0"
             id="path7962-4-3-5-3"
             style="color:#000000;fill:#c8beb7;fill-opacity:1;fill-rule:nonzero;stroke:none;stroke-width:2;marker:none;visibility:visible;display:inline;overflow:visible;enable-background:accumulate" />
        </g>
      </g>
    </g>
  </g>
  <rect
     width="24"
     height="24"
     x="0"
     y="0"
     id="canvas"
     style="fill:none;stroke:none;visibility:hidden" />
  <path
     d="m 12.07875,0.37535727 c -4.1584363,0 -8.3716362,3.86383183 -8.3716362,8.37163613 0,4.5078046 6.4397202,12.2354666 8.3716362,14.8113556 1.931916,-2.575889 8.371635,-10.303551 8.371635,-14.8113556 0,-4.5078043 -4.2132,-8.37163613 -8.371635,-8.37163613 z m 0,2.57588783 c 3.234336,0 5.795747,2.289681 5.795747,5.7957483 0,3.5060676 -4.293154,8.9440486 -5.795747,10.9475236 -1.502592,-2.003475 -5.7957483,-7.441456 -5.7957483,-10.9475236 0,-3.5060673 2.5614124,-5.7957483 5.7957483,-5.7957483 z"
     inkscape:connector-curvature="0"
     id="path4077-9-1"
     style="color:#000000;fill:#6c5d53;fill-opacity:1;fill-rule:nonzero;stroke:none;stroke-width:2;marker:none;visibility:visible;display:inline;overflow:visible;enable-background:accumulate" />
  <path
     inkscape:connector-curvature="0"
     d="m 10.299109,4.6773388 0,0.5008658 -1.0017323,0 c -0.2504323,0 -0.5008656,0.2504329 -0.5008656,0.5008658 l 0,6.5112556 0.5008656,0 0,1.001732 1.0017323,0 0,-1.001732 3.50606,0 0,1.001732 1.001731,0 0,-1.001732 0.500867,0 0,-6.5112556 c 0,-0.2504329 -0.250434,-0.5008658 -0.500867,-0.5008658 l -1.001731,0 0,-0.5008658 z m -0.5008667,1.5025973 4.5077927,0 0,2.5043288 -4.5077927,0 z m 0.5008667,4.0069269 c 0.277479,0 0.500865,0.223386 0.500865,0.500866 0,0.277479 -0.223386,0.500866 -0.500865,0.500866 -0.27748,0 -0.5008667,-0.223387 -0.5008667,-0.500866 0,-0.27748 0.2233867,-0.500866 0.5008667,-0.500866 z m 3.50606,0 c 0.277479,0 0.500866,0.223386 0.500866,0.500866 0,0.277479 -0.223387,0.500866 -0.500866,0.500866 -0.277479,0 -0.500866,-0.223387 -0.500866,-0.500866 0,-0.27748 0.223387,-0.500866 0.500866,-0.500866 z"
     id="path8522-6-8"
     style="color:#000000;fill:#6c5d53;fill-opacity:1;fill-rule:nonzero;stroke:none;stroke-width:2;marker:none;visibility:visible;display:inline;overflow:visible;enable-background:accumulate" />
</svg>
