<?xml version="1.0" encoding="UTF-8" standalone="no"?>
<!-- Created with Inkscape (http://www.inkscape.org/) -->

<svg
   xmlns:dc="http://purl.org/dc/elements/1.1/"
   xmlns:cc="http://creativecommons.org/ns#"
   xmlns:rdf="http://www.w3.org/1999/02/22-rdf-syntax-ns#"
   xmlns:svg="http://www.w3.org/2000/svg"
   xmlns="http://www.w3.org/2000/svg"
   xmlns:sodipodi="http://sodipodi.sourceforge.net/DTD/sodipodi-0.dtd"
   xmlns:inkscape="http://www.inkscape.org/namespaces/inkscape"
   version="1.1"
   width="24"
   height="24"
   id="svg4460"
   inkscape:version="0.48.2 r9819"
   sodipodi:docname="marker.svg">
  <sodipodi:namedview
     pagecolor="#ffffff"
     bordercolor="#666666"
     borderopacity="1"
     objecttolerance="10"
     gridtolerance="10"
     guidetolerance="10"
     inkscape:pageopacity="0"
     inkscape:pageshadow="2"
     inkscape:window-width="1680"
     inkscape:window-height="994"
     id="namedview12"
     showgrid="false"
     inkscape:zoom="13.906433"
     inkscape:cx="-15.229392"
     inkscape:cy="24.535782"
     inkscape:window-x="-4"
     inkscape:window-y="-4"
     inkscape:window-maximized="1"
     inkscape:current-layer="svg4460" />
  <defs
     id="defs4462" />
  <metadata
     id="metadata4465">
    <rdf:RDF>
      <cc:Work
         rdf:about="">
        <dc:format>image/svg+xml</dc:format>
        <dc:type
           rdf:resource="http://purl.org/dc/dcmitype/StillImage" />
        <dc:title></dc:title>
      </cc:Work>
    </rdf:RDF>
  </metadata>
  <g
     transform="matrix(1.2732548,0,0,1.2732548,-3.8111857,-1312.5743)"
     id="layer1"
     style="fill:#0033ff;fill-opacity:1;opacity:0.2">
    <g
       transform="translate(72,-262)"
       id="marker-24"
       style="display:inline;fill:#0033ff;fill-opacity:1">
      <g
         transform="translate(0,33)"
         id="g15422"
         style="fill:#0033ff;fill-opacity:1">
        <path
           d="m -53,1266.8622 c 0,3.5 -5,9.5 -6.5,11.5 -1.5,-2 -6.5,-8 -6.5,-11.5 0,-3.5 3.27126,-6.5 6.5,-6.5 3.22874,0 6.5,3 6.5,6.5 z"
           inkscape:connector-curvature="0"
           id="path15235"
           style="opacity:0.29999999999999999;color:#000000;fill:#0033ff;fill-opacity:1;fill-rule:nonzero;stroke:#ffffff;stroke-width:2;stroke-linecap:butt;stroke-linejoin:round;stroke-miterlimit:4;stroke-opacity:1;stroke-dasharray:none;stroke-dashoffset:0;marker:none;visibility:visible;display:inline;overflow:visible;enable-background:accumulate" />
        <g
           transform="translate(-173.99314,956.00001)"
           id="marker-15-7-6-8-1"
           style="display:inline;fill:#0033ff;fill-opacity:1">
          <path
             d="m 120.99314,310.86219 c 0,3.5 -5,9.5 -6.5,11.5 -1.5,-2 -6.5,-8 -6.5,-11.5 0,-3.5 3.27126,-6.5 6.5,-6.5 3.22874,0 6.5,3 6.5,6.5 z"
             inkscape:connector-curvature="0"
             id="path7962-4-3-5-3"
             style="color:#000000;fill:#0033ff;fill-opacity:1;fill-rule:nonzero;stroke:none;stroke-width:2;marker:none;visibility:visible;display:inline;overflow:visible;enable-background:accumulate" />
        </g>
      </g>
    </g>
  </g>
  <rect
     width="24"
     height="24"
     x="0"
     y="0"
     id="canvas"
     style="fill:none;stroke:none;visibility:hidden" />
  <path
     d="m 12.07875,0.57310747 c -4.1584363,0 -8.3716362,3.83087343 -8.3716362,8.30022633 0,4.4693532 6.4397202,12.1310982 8.3716362,14.6850152 1.931916,-2.553917 8.371635,-10.215662 8.371635,-14.6850152 0,-4.4693529 -4.2132,-8.30022633 -8.371635,-8.30022633 z m 0,2.55391563 c 3.234336,0 5.795747,2.2701501 5.795747,5.7463107 0,3.4761612 -4.293154,8.8677562 -5.795747,10.8541412 -1.502592,-1.986385 -5.7957483,-7.37798 -5.7957483,-10.8541412 0,-3.4761606 2.5614124,-5.7463107 5.7957483,-5.7463107 z"
     inkscape:connector-curvature="0"
     id="path4077-9-1"
     style="opacity:0.5;color:#000000;fill:#0033ff;fill-opacity:1;fill-rule:nonzero;stroke:none;stroke-width:2;marker:none;visibility:visible;display:inline;overflow:visible;enable-background:accumulate" />
</svg>
